<?xml version="1.0" encoding="UTF-8"?>
<svg xmlns="http://www.w3.org/2000/svg" viewBox="0 0 1000 1000">
  <path d="M0 0 C0.7 0.1 1.4 0.2 2.1 0.4 C66.5 12.9 133.5 50.8 172.7 104.2 C174 106 175.4 107.8 176.7 109.6 C183.1 118 188.8 126.7 194 136 C194.3 136.6 194.7 137.3 195.1 137.9 C201 148.5 205.8 159.4 210.1 170.7 C210.8 172.6 211.6 174.6 212.3 176.5 C222.9 204.3 226.2 233.4 226.2 263 C226.2 264.3 226.2 264.3 226.2 265.7 C226.2 279 225.7 291.9 223 305 C222.6 306.8 222.3 308.6 221.9 310.5 C211.3 365.5 178.5 417.9 134 452 C132.9 452.7 131.9 453.5 130.9 454.4 C96.5 481.6 55.7 500.3 13.3 511.3 C11 511.9 8.7 512.6 6.5 513.2 C-4.4 516.3 -15.5 518.1 -26.8 519.7 C-27.5 519.8 -28.2 519.9 -29 520 C-48.4 522.8 -67.7 523.3 -87.3 523.3 C-87.9 523.3 -88.6 523.3 -89.3 523.3 C-112.7 523.4 -135.7 521.9 -158.9 518.3 C-162 517.8 -165.2 517.3 -168.3 516.9 C-178 515.4 -187.6 513.5 -197.1 510.9 C-200.5 510.1 -203.9 509.3 -207.4 508.6 C-229.8 503.8 -251.2 496.2 -273 489 C-273 526.2 -273 563.5 -273 602 C-270 602.6 -267 603.3 -264 604 C-255.2 606.9 -246.1 610.8 -241 619 C-240.4 624.4 -240.5 627.5 -244 632 C-246.5 634.5 -247.6 634.2 -251.2 634.2 C-252.3 634.2 -253.4 634.3 -254.5 634.3 C-255.8 634.3 -257 634.3 -258.2 634.3 C-259.5 634.3 -260.8 634.3 -262.1 634.3 C-265.6 634.3 -269.2 634.3 -272.7 634.4 C-274.9 634.4 -277.1 634.4 -279.3 634.4 C-286.1 634.4 -293 634.4 -299.9 634.4 C-307.8 634.4 -315.8 634.5 -323.7 634.5 C-329.9 634.6 -336 634.6 -342.1 634.6 C-345.8 634.6 -349.5 634.6 -353.1 634.6 C-357.2 634.7 -361.3 634.7 -365.4 634.7 C-366.6 634.7 -367.8 634.7 -369.1 634.7 C-372.2 634.7 -375 634.6 -378 634 C-381 630.8 -382.5 628 -382.6 623.6 C-382.4 618.9 -380.7 616.2 -377.5 612.9 C-370.1 607.3 -359.2 602 -350 602 C-350.3 443.9 -350.6 285.8 -351 123 C-375.1 142.7 -397.7 162.5 -416 188 C-416.7 189 -416.7 189 -417.5 190.1 C-419 192.2 -420.4 194.3 -421.8 196.5 C-422.3 197.1 -422.7 197.7 -423.1 198.3 C-426.4 203.4 -426.2 207.2 -425 213 C-423.3 220.8 -422.1 231.2 -425.6 238.7 C-428.8 243.2 -430.9 245.4 -436.3 246.8 C-441.3 245.6 -442.3 243.5 -445 239.3 C-445.6 238.2 -446.3 237.1 -447 236 C-447.7 234.7 -448.5 233.4 -449.3 232.1 C-450.7 229.9 -452 227.7 -453.3 225.5 C-457.3 219 -461.4 212.6 -465.6 206.3 C-479.7 184.8 -479.7 184.8 -485 174 C-480.2 168.4 -475.2 163.1 -470 157.9 C-469.3 157.2 -468.7 156.6 -468 155.9 C-464.1 151.9 -460 148.2 -455.8 144.5 C-453.4 142.4 -451 140.3 -448.6 138.1 C-443.2 133.2 -437.6 128.5 -432 124 C-430.8 123 -429.7 122.1 -428.6 121.2 C-418.6 113.1 -408.4 105.5 -398 98 C-397.1 97.4 -396.3 96.8 -395.5 96.2 C-383 87.2 -370.2 78.9 -357 71 C-356 70.4 -355.1 69.8 -354.2 69.3 C-334 57.2 -313.2 45.5 -291.5 36.4 C-288.5 35.2 -285.6 33.9 -282.7 32.5 C-277.2 30 -271.6 27.8 -266 25.6 C-265 25.2 -264 24.8 -263 24.4 C-247.9 18.6 -232.6 13.3 -217 9 C-215.7 8.6 -215.7 8.6 -214.5 8.3 C-144.3 -11.3 -71.3 -14.1 0 0 Z" 
    fill="currentColor" transform="translate(618,198)"/>
</svg>